<?xml version="1.0" encoding="UTF-8"?>
<!DOCTYPE svg PUBLIC "-//W3C//DTD SVG 1.1//EN" "http://www.w3.org/Graphics/SVG/1.1/DTD/svg11.dtd">
<!-- Creator: CorelDRAW X6 -->
<svg xmlns="http://www.w3.org/2000/svg" xml:space="preserve" width="8.4666mm" height="8.4666mm" version="1.1" style="shape-rendering:geometricPrecision; text-rendering:geometricPrecision; image-rendering:optimizeQuality; fill-rule:evenodd; clip-rule:evenodd"
viewBox="0 0 847 847"
 xmlns:xlink="http://www.w3.org/1999/xlink">
 <defs>
  <style type="text/css">
   <![CDATA[
    .fil2 {fill:#419639}
    .fil1 {fill:#EE2E24}
    .fil0 {fill:#FEFEFE}
    .fil3 {fill:#FFD204}
   ]]>
  </style>
 </defs>
 <g id="Camada_x0020_1">
  <metadata id="CorelCorpID_0Corel-Layer"/>
  <g id="_445497088">
   <path class="fil0" d="M589 337c81,-19 56,120 -7,131 -78,13 -58,-115 7,-131zm-235 -150l84 0c46,2 88,6 129,11 27,4 146,30 168,49 7,9 23,19 33,31 11,12 14,24 20,42 2,63 -26,111 -54,151 -23,33 -67,89 -92,107 -28,-26 -67,-48 -117,-57 -39,-7 -129,-11 -160,6 -38,-2 -171,33 -211,43 -38,10 -71,27 -102,-1 -23,-21 -30,-55 -30,-95 -6,-13 -6,-23 0,-36 0,-39 0,-101 -12,-137l-8 -17 0 -14 79 -33c26,-10 54,-17 84,-24 52,-11 134,-25 189,-27zm-101 210c18,-17 20,-42 49,-38 2,19 -1,36 -18,40l-5 1c-28,9 -35,63 -39,89l-28 0c-7,-21 5,-56 7,-77 7,-51 -4,-47 15,-50 11,-2 9,-1 20,2l-1 32zm95 -40c5,19 -8,54 -12,77 -6,36 10,45 -11,50 -43,11 -17,-58 -13,-78 1,-7 4,-41 4,-42 4,-14 20,-11 32,-7zm112 32c10,-17 28,-51 51,-47 30,4 1,64 5,108 1,13 7,9 -1,17 -9,9 -27,9 -31,-9 -3,-19 9,-62 8,-86 -32,23 -41,90 -45,102 -16,4 -11,5 -26,-1 -5,-28 12,-69 9,-89 -2,-11 2,-2 -4,-8 -31,44 -33,64 -43,105l-26 0c-5,-29 14,-83 11,-124 38,-12 34,-4 30,32 3,-3 3,-3 7,-7l10 -14c3,-4 14,-15 19,-18 32,-15 25,19 26,40zm229 -16c2,-8 12,-23 18,-30 8,-10 13,-18 30,-14 3,18 0,35 -17,40 -36,9 -36,64 -45,91l-28 0c-5,-26 13,-85 11,-124 46,-11 30,5 31,38zm-355 -62c110,-57 94,5 64,7 -24,2 -25,-4 -50,6l8 17c-20,2 -31,-14 -52,-17 -26,-5 -40,2 -37,-32 29,-5 47,9 67,19zm-31 -29c8,-46 62,-53 81,-4 -6,6 -37,16 -51,25 -10,-6 -21,-11 -31,-21zm-242 57c-8,-41 24,-61 56,-73 154,-58 150,83 58,126 -15,7 -34,8 -50,14 -10,28 -7,59 -12,88l-35 2c-8,-22 7,-67 11,-90 -4,-4 2,0 -7,-5 -15,-9 -29,-10 -22,-32 7,-2 20,8 34,11 2,-20 7,-39 8,-59 0,-16 -6,-11 8,-19 8,-4 17,-5 25,-3 8,19 -4,58 -7,82 31,-4 50,-15 64,-33 35,-48 -6,-101 -81,-57 -43,26 -27,35 -51,46z"/>
   <path class="fil1" d="M61 340c24,-11 8,-20 51,-46 74,-44 116,8 81,57 -13,18 -32,29 -64,33 3,-25 15,-63 7,-82 -9,-1 -18,-1 -25,3 -14,8 -7,3 -8,19 -1,20 -6,39 -8,59 -14,-4 -27,-13 -34,-11 -8,22 6,23 22,32 9,5 3,1 7,5 -4,24 -19,69 -11,90l35 -2c5,-30 2,-60 12,-88 16,-7 35,-7 50,-14 92,-43 96,-185 -58,-126 -32,12 -63,32 -56,73z"/>
   <path class="fil1" d="M460 390c-1,-21 6,-55 -26,-40 -5,2 -16,14 -19,18l-10 14c-4,5 -3,4 -7,7 4,-36 8,-44 -30,-32 2,41 -16,95 -11,124l26 0c10,-41 12,-61 43,-105 5,7 2,-3 4,8 4,20 -14,61 -9,89 15,6 10,5 26,1 4,-12 13,-79 45,-102 1,24 -11,67 -8,86 3,18 21,19 31,9 8,-8 3,-4 1,-17 -5,-44 25,-104 -5,-108 -23,-3 -41,30 -51,47z"/>
   <path class="fil2" d="M365 528c80,1 155,-4 226,40 18,12 40,34 53,40 50,-49 165,-155 159,-240l-14 -48c2,63 -26,111 -54,151 -23,33 -67,89 -92,107 -28,-26 -67,-48 -117,-57 -39,-7 -129,-11 -160,6z"/>
   <path class="fil1" d="M571 447c-8,-18 -7,-37 -2,-57 5,-23 6,-34 30,-34 12,22 11,98 -28,91zm18 -110c-65,15 -85,144 -7,131 63,-10 88,-150 7,-131z"/>
   <path class="fil1" d="M689 373c-2,-33 14,-49 -31,-38 2,39 -16,97 -11,124l28 0c9,-27 10,-81 45,-91 16,-4 20,-21 17,-40 -17,-4 -22,4 -30,14 -5,7 -16,22 -18,30z"/>
   <path class="fil1" d="M253 397l1 -32c-11,-3 -9,-4 -20,-2 -19,3 -8,-1 -15,50 -3,21 -14,56 -7,77l28 0c3,-26 11,-80 39,-89l5 -1c17,-4 20,-21 18,-40 -29,-4 -30,20 -49,38z"/>
   <path class="fil2" d="M334 312c-20,-11 -38,-24 -67,-19 -3,35 11,27 37,32 21,4 33,19 52,17l-8 -17c25,-10 26,-4 50,-6 30,-2 46,-65 -64,-7z"/>
   <path class="fil1" d="M348 358c-11,-5 -27,-7 -32,7 0,0 -3,34 -4,42 -4,20 -29,89 13,78 21,-5 5,-14 11,-50 4,-23 16,-58 12,-77z"/>
   <path class="fil3" d="M303 283c9,10 21,15 31,21 14,-9 44,-19 51,-25 -19,-49 -73,-42 -81,4z"/>
   <path class="fil0" d="M571 447c40,7 40,-69 28,-91 -25,0 -25,11 -30,34 -5,21 -6,39 2,57z"/>
  </g>
 </g>
</svg>
